<svg xmlns="http://www.w3.org/2000/svg" viewBox="0 0 1600 1600"><defs><style>.cls-1{fill:#fff;}</style></defs><g id="Layer_3" data-name="Layer 3"><g id="Icon"><polygon class="cls-1" points="1457.35 1381.08 1424.47 1381.08 1424.47 732.3 932.1 239.93 439.72 732.3 439.72 1218.69 406.84 1218.69 406.84 718.68 932.1 193.42 1457.35 718.68 1457.35 1381.08"/><polygon class="cls-1" points="1193.16 1406.58 1160.28 1406.58 1160.28 732.3 667.9 239.93 175.53 732.3 175.53 1360.78 945.01 1360.78 945.01 790.86 684.35 790.86 684.35 1218.69 651.46 1218.69 651.46 757.97 977.89 757.97 977.89 1393.67 142.65 1393.67 142.65 718.68 667.9 193.42 1193.16 718.68 1193.16 1406.58"/></g></g></svg>