<svg xmlns="http://www.w3.org/2000/svg" viewBox="0 0 1600 1600"><g id="Layer_3" data-name="Layer 3"><g id="Line"><rect x="11.3" y="1128.03" width="1577.41" height="16"/></g><g id="Text"><path d="M573.07,1205.79h8.06v57.51h-8.06Zm5,25.35H610v7.67H578.09Zm27.64-25.35h8.07v57.51h-8.07Z"/><path d="M648.62,1261.26a17.89,17.89,0,0,1-7.1-7.44,23.6,23.6,0,0,1-2.52-11.13V1226.4a23.64,23.64,0,0,1,2.52-11.14,17.92,17.92,0,0,1,7.1-7.43,22.66,22.66,0,0,1,21.19,0,17.92,17.92,0,0,1,7.1,7.43,23.64,23.64,0,0,1,2.51,11.14v16.29a23.6,23.6,0,0,1-2.51,11.13,17.89,17.89,0,0,1-7.1,7.44,22.66,22.66,0,0,1-21.19,0Zm16.86-6.92a10.82,10.82,0,0,0,4.2-4.55,15.08,15.08,0,0,0,1.48-6.82v-16.85a15.05,15.05,0,0,0-1.48-6.82,10.76,10.76,0,0,0-4.2-4.55,13.07,13.07,0,0,0-12.53,0,10.76,10.76,0,0,0-4.2,4.55,14.92,14.92,0,0,0-1.48,6.82V1243a15,15,0,0,0,1.48,6.82,10.82,10.82,0,0,0,4.2,4.55,13.07,13.07,0,0,0,12.53,0Z"/><path d="M703.84,1205.79h8.06v57.51h-8.06Zm4,49.83h32.91v7.68H707.87Z"/><path d="M770.49,1263.3h-8.07v-57.51h8.07Z"/><path d="M796.88,1205.79h8.06v57.51h-8.06Zm5.45,49.83h13q6.36,0,9.86-3.3t3.5-9.31v-16.93q0-6-3.5-9.32t-9.86-3.3h-13v-7.67h12.78a26.54,26.54,0,0,1,11.82,2.41,16.89,16.89,0,0,1,7.48,7A22.7,22.7,0,0,1,837,1226.4v16.29a22.66,22.66,0,0,1-2.57,11.15,16.73,16.73,0,0,1-7.5,7,26.65,26.65,0,0,1-11.84,2.42H802.33Z"/><path d="M875.47,1205.79h6.88l21.2,57.51h-8.7l-15.94-46.4L863,1263.3h-8.7ZM864,1243H894.3v7.67H864Z"/><path d="M957,1212.75l-25,42.87h25.82v7.68H922v-7l25.23-42.87H922.74v-7.67H957Z"/><path d="M980.61,1205.79h8.07v57.51h-8.07Zm3.92,0h33v7.67h-33Zm0,25.11h28.67v7.68H984.53Zm0,24.72h33v7.68h-33Z"/></g><g id="Slogan"><text/><path d="M401.66,1344h6.24l5.39,21.71,7.59-21.71H425l7.59,21.71L438,1344h6.24l-9.38,30.41h-4.51l-7.41-21-7.41,21H411Z"/><path d="M462.7,1331.79h6v42.6h-6ZM481.16,1356a7,7,0,0,0-1.67-5,6.17,6.17,0,0,0-4.69-1.76,6.26,6.26,0,0,0-4.52,1.53,5.64,5.64,0,0,0-1.6,4.3l-.62-5.86a10.87,10.87,0,0,1,3.68-4.17,9,9,0,0,1,5-1.48,9.46,9.46,0,0,1,7.67,3.24c1.8,2.15,2.71,5.21,2.71,9.15v18.46h-6Z"/><path d="M513.46,1373.25a10.6,10.6,0,0,1-4.55-4.65,16,16,0,0,1-1.57-7.4v-3.42a17.88,17.88,0,0,1,1.51-7.71,10.7,10.7,0,0,1,4.38-4.86,13.45,13.45,0,0,1,6.91-1.67,11,11,0,0,1,6.51,1.9,11.91,11.91,0,0,1,4.11,5.51,23.48,23.48,0,0,1,1.42,8.64v2H511.67v-4.8H526.5a10.32,10.32,0,0,0-1.92-5.79,5.4,5.4,0,0,0-4.44-2.06,6.47,6.47,0,0,0-5.26,2.23,9.54,9.54,0,0,0-1.86,6.29v3.87a8,8,0,0,0,2,5.8,7.59,7.59,0,0,0,5.66,2,9.38,9.38,0,0,0,3.6-.73,10.48,10.48,0,0,0,3.2-2.05l3.92,3.93a16.51,16.51,0,0,1-5.07,3.35,14.44,14.44,0,0,1-5.65,1.19A15.29,15.29,0,0,1,513.46,1373.25Z"/><path d="M552.39,1344h6v30.41h-6Zm14.73,5.74a7.26,7.26,0,0,0-2.78-.5,5.93,5.93,0,0,0-4.41,1.57,5.85,5.85,0,0,0-1.57,4.35l-.61-5.86a11.05,11.05,0,0,1,3.63-4.23,8.53,8.53,0,0,1,4.92-1.51,11.21,11.21,0,0,1,3.77.6,8.44,8.44,0,0,1,2.94,1.77l-3.9,5.27A5,5,0,0,0,567.12,1349.72Z"/><path d="M594.65,1373.25a10.67,10.67,0,0,1-4.56-4.65,16.15,16.15,0,0,1-1.56-7.4v-3.42a17.88,17.88,0,0,1,1.51-7.71,10.7,10.7,0,0,1,4.38-4.86,13.42,13.42,0,0,1,6.91-1.67,11,11,0,0,1,6.5,1.9A11.86,11.86,0,0,1,612,1351a23.48,23.48,0,0,1,1.42,8.64v2H592.86v-4.8h14.83a10.32,10.32,0,0,0-1.92-5.79,5.43,5.43,0,0,0-4.44-2.06,6.45,6.45,0,0,0-5.26,2.23,9.54,9.54,0,0,0-1.86,6.29v3.87a7.91,7.91,0,0,0,2,5.8,7.59,7.59,0,0,0,5.66,2,9.38,9.38,0,0,0,3.6-.73,10.31,10.31,0,0,0,3.19-2.05l3.93,3.93a16.51,16.51,0,0,1-5.07,3.35,14.44,14.44,0,0,1-5.65,1.19A15.27,15.27,0,0,1,594.65,1373.25Z"/><path d="M661.69,1344h6v30.41h-6Zm18.16,12a7.21,7.21,0,0,0-1.58-5,5.73,5.73,0,0,0-4.48-1.76,6.24,6.24,0,0,0-4.53,1.55,5.84,5.84,0,0,0-1.6,4.37l-.61-5.86a10.89,10.89,0,0,1,3.67-4.25,9,9,0,0,1,5-1.49,9.85,9.85,0,0,1,5.45,1.45,9.16,9.16,0,0,1,3.44,4.23,17.1,17.1,0,0,1,1.19,6.71v18.46h-6Zm18.16,0a6.91,6.91,0,0,0-1.67-5,6.14,6.14,0,0,0-4.68-1.76,5.5,5.5,0,0,0-4.31,1.7,6.94,6.94,0,0,0-1.52,4.81l-1.2-5.86a11.64,11.64,0,0,1,3.79-4.68,8.88,8.88,0,0,1,5.2-1.65,10.36,10.36,0,0,1,5.61,1.45,9.24,9.24,0,0,1,3.55,4.23,16.73,16.73,0,0,1,1.21,6.71v18.46h-6Z"/><path d="M730.32,1373.25a10.67,10.67,0,0,1-4.56-4.65,16.14,16.14,0,0,1-1.57-7.4v-3.42a18,18,0,0,1,1.51-7.71,10.81,10.81,0,0,1,4.38-4.86,13.49,13.49,0,0,1,6.92-1.67,11,11,0,0,1,6.5,1.9,11.86,11.86,0,0,1,4.12,5.51,23.69,23.69,0,0,1,1.42,8.64v2H728.53v-4.8h14.82a10.24,10.24,0,0,0-1.91-5.79,5.43,5.43,0,0,0-4.44-2.06,6.45,6.45,0,0,0-5.26,2.23,9.54,9.54,0,0,0-1.86,6.29v3.87a7.91,7.91,0,0,0,2,5.8,7.57,7.57,0,0,0,5.65,2,9.39,9.39,0,0,0,3.61-.73,10.43,10.43,0,0,0,3.19-2.05l3.93,3.93a16.75,16.75,0,0,1-5.07,3.35,14.49,14.49,0,0,1-5.66,1.19A15.25,15.25,0,0,1,730.32,1373.25Z"/><path d="M769.24,1344h6v30.41h-6Zm18.17,12a7.16,7.16,0,0,0-1.59-5,5.72,5.72,0,0,0-4.48-1.76,6.27,6.27,0,0,0-4.53,1.55,5.83,5.83,0,0,0-1.59,4.37l-.62-5.86a10.91,10.91,0,0,1,3.68-4.25,9,9,0,0,1,5-1.49,9.83,9.83,0,0,1,5.45,1.45,9.18,9.18,0,0,1,3.45,4.23,17.1,17.1,0,0,1,1.18,6.71v18.46h-6Zm18.16,0a7,7,0,0,0-1.67-5,6.17,6.17,0,0,0-4.69-1.76,5.48,5.48,0,0,0-4.3,1.7,6.94,6.94,0,0,0-1.53,4.81l-1.2-5.86a11.73,11.73,0,0,1,3.79-4.68,8.9,8.9,0,0,1,5.2-1.65,10.42,10.42,0,0,1,5.62,1.45,9.16,9.16,0,0,1,3.54,4.23,16.72,16.72,0,0,1,1.22,6.71v18.46h-6Z"/><path d="M837.52,1373.27a10.2,10.2,0,0,1-4.29-4.52,15.89,15.89,0,0,1-1.48-7.17v-4.95a15.54,15.54,0,0,1,1.48-7.07,10.16,10.16,0,0,1,4.29-4.48,15.65,15.65,0,0,1,13.54,0,10.22,10.22,0,0,1,4.29,4.48,15.67,15.67,0,0,1,1.48,7.07v5a15.79,15.79,0,0,1-1.48,7.11,10.29,10.29,0,0,1-4.29,4.49,15.47,15.47,0,0,1-13.54,0Zm11.62-6.09a8.11,8.11,0,0,0,1.71-5.51v-5a8,8,0,0,0-1.71-5.47,7,7,0,0,0-9.7,0,8,8,0,0,0-1.71,5.47v5a8.11,8.11,0,0,0,1.71,5.51,7,7,0,0,0,9.7,0Z"/><path d="M877.32,1344h6v30.41h-6Zm14.74,5.74a7.26,7.26,0,0,0-2.78-.5,5.93,5.93,0,0,0-4.41,1.57,5.85,5.85,0,0,0-1.57,4.35l-.62-5.86a11.07,11.07,0,0,1,3.64-4.23,8.53,8.53,0,0,1,4.92-1.51,11.11,11.11,0,0,1,3.76.6,8.39,8.39,0,0,1,3,1.77l-3.9,5.27A5,5,0,0,0,892.06,1349.72Z"/><path d="M914.93,1331.79h6v6h-6Zm0,12.19h6v30.41h-6Z"/><path d="M947.23,1373.25a10.6,10.6,0,0,1-4.55-4.65,16,16,0,0,1-1.57-7.4v-3.42a17.88,17.88,0,0,1,1.51-7.71,10.7,10.7,0,0,1,4.38-4.86,13.45,13.45,0,0,1,6.91-1.67,11,11,0,0,1,6.51,1.9,11.91,11.91,0,0,1,4.11,5.51,23.48,23.48,0,0,1,1.42,8.64v2H945.44v-4.8h14.83a10.32,10.32,0,0,0-1.92-5.79,5.4,5.4,0,0,0-4.44-2.06,6.47,6.47,0,0,0-5.26,2.23,9.54,9.54,0,0,0-1.86,6.29v3.87a8,8,0,0,0,2,5.8,7.59,7.59,0,0,0,5.66,2,9.38,9.38,0,0,0,3.6-.73,10.48,10.48,0,0,0,3.2-2.05l3.92,3.93a16.51,16.51,0,0,1-5.07,3.35,14.44,14.44,0,0,1-5.65,1.19A15.29,15.29,0,0,1,947.23,1373.25Z"/><path d="M991.85,1374.3a18.5,18.5,0,0,1-4.41-1.58,17.42,17.42,0,0,1-3.77-2.64l3.54-4.36a20.16,20.16,0,0,0,4.89,2.81,13.43,13.43,0,0,0,4.81.94,10.26,10.26,0,0,0,5.31-1.1,3.62,3.62,0,0,0,1.78-3.3,2.6,2.6,0,0,0-1-2.2,5.61,5.61,0,0,0-2.4-1q-1.44-.24-4-.45l-.49,0-.5,0h-.24l-.23,0a24,24,0,0,1-5-.86,6.81,6.81,0,0,1-3.41-2.36,7.82,7.82,0,0,1-1.37-5,10,10,0,0,1,1.32-5.36,8,8,0,0,1,3.93-3.21,17.19,17.19,0,0,1,6.53-1.07,22.17,22.17,0,0,1,4.53.44,20.29,20.29,0,0,1,4.11,1.3,20.54,20.54,0,0,1,3.78,2.18l-3.6,4.37a19.84,19.84,0,0,0-4.5-2.2,13.6,13.6,0,0,0-4.32-.73,8.19,8.19,0,0,0-4.57,1,3.53,3.53,0,0,0-1.52,3.12,2.14,2.14,0,0,0,.86,1.85,5.14,5.14,0,0,0,2.19.82c.87.13,2.12.25,3.75.35a2,2,0,0,0,.36,0l.4,0h.17l.18,0a25.43,25.43,0,0,1,5.43.84,7.34,7.34,0,0,1,3.77,2.55,8.69,8.69,0,0,1,1.52,5.51,9.83,9.83,0,0,1-1.4,5.44,8.5,8.5,0,0,1-4.24,3.23,19.81,19.81,0,0,1-7.1,1.09A23.31,23.31,0,0,1,991.85,1374.3Z"/><path d="M1063.36,1366.54a2.68,2.68,0,0,0,.48,1.71,1.65,1.65,0,0,0,1.36.6H1068v5.68h-3.52a6.64,6.64,0,0,1-5.26-2.11,8.67,8.67,0,0,1-1.86-5.94v-34.69h6Z"/><path d="M1087.78,1372.5c-1.86-1.55-2.78-3.91-2.78-7.08,0-3,.85-5.26,2.55-6.76s4.26-2.26,7.7-2.26h8.64l.41,4.8h-9a5.12,5.12,0,0,0-3.5,1,4.09,4.09,0,0,0-1.16,3.18,3.93,3.93,0,0,0,1.54,3.43,8,8,0,0,0,4.67,1.11,13.53,13.53,0,0,0,5.12-.73,2.41,2.41,0,0,0,1.68-2.28l.62,4.27a7.13,7.13,0,0,1-2,2,8.6,8.6,0,0,1-2.68,1.18,13.4,13.4,0,0,1-3.43.4Q1090.57,1374.83,1087.78,1372.5Zm15.85-17.39a6.38,6.38,0,0,0-1.6-4.64,6,6,0,0,0-4.52-1.66,11.67,11.67,0,0,0-3.56.56,10.54,10.54,0,0,0-3.09,1.55l-4.37-3a11.41,11.41,0,0,1,4.56-3.23,16.26,16.26,0,0,1,6.28-1.16,14.49,14.49,0,0,1,6.48,1.33,9.31,9.31,0,0,1,4.1,3.87,12.48,12.48,0,0,1,1.4,6.11v19.54h-5.68Z"/><path d="M1136.09,1374.3a18.5,18.5,0,0,1-4.41-1.58,17.42,17.42,0,0,1-3.77-2.64l3.54-4.36a20.16,20.16,0,0,0,4.89,2.81,13.43,13.43,0,0,0,4.81.94,10.26,10.26,0,0,0,5.31-1.1,3.62,3.62,0,0,0,1.78-3.3,2.57,2.57,0,0,0-1-2.2,5.55,5.55,0,0,0-2.4-1c-1-.16-2.31-.31-4-.45l-.5,0-.5,0h-.24l-.23,0a24,24,0,0,1-5-.86,6.81,6.81,0,0,1-3.41-2.36,7.82,7.82,0,0,1-1.36-5,10,10,0,0,1,1.31-5.36,8,8,0,0,1,3.93-3.21,17.19,17.19,0,0,1,6.53-1.07,22.17,22.17,0,0,1,4.53.44,20.58,20.58,0,0,1,4.12,1.3,20.8,20.8,0,0,1,3.77,2.18l-3.6,4.37a19.84,19.84,0,0,0-4.5-2.2,13.6,13.6,0,0,0-4.32-.73,8.19,8.19,0,0,0-4.57,1,3.53,3.53,0,0,0-1.52,3.12,2.14,2.14,0,0,0,.86,1.85,5.14,5.14,0,0,0,2.19.82c.87.13,2.12.25,3.75.35a2,2,0,0,0,.36,0l.4,0h.17l.18,0a25.43,25.43,0,0,1,5.43.84,7.34,7.34,0,0,1,3.77,2.55,8.69,8.69,0,0,1,1.52,5.51,9.83,9.83,0,0,1-1.4,5.44,8.5,8.5,0,0,1-4.24,3.23,19.81,19.81,0,0,1-7.1,1.09A23.31,23.31,0,0,1,1136.09,1374.3Z"/><path d="M1171.17,1344h13.71v5.39h-13.71Zm4.84,28.52q-1.71-2-1.71-6v-31.35h6v31.41a2.81,2.81,0,0,0,.44,1.71,1.48,1.48,0,0,0,1.28.6h2.88v5.68h-3.46C1179,1374.53,1177.16,1373.86,1176,1372.5Z"/></g><g id="Icon"><polygon points="1279.71 1045.39 1255.71 1045.39 1255.71 571.94 896.4 212.63 537.09 571.94 537.09 926.88 513.09 926.88 513.09 562 896.4 178.69 1279.71 562 1279.71 1045.39"/><polygon points="1086.91 1064 1062.91 1064 1062.91 571.94 703.6 212.63 344.29 571.94 344.29 1030.57 905.82 1030.57 905.82 614.67 715.6 614.67 715.6 926.88 691.6 926.88 691.6 590.67 929.82 590.67 929.82 1054.57 320.29 1054.57 320.29 562 703.6 178.69 1086.91 562 1086.91 1064"/></g></g></svg>